<?xml version="1.0" standalone="no"?>
<!DOCTYPE svg PUBLIC "-//W3C//DTD SVG 20010904//EN"
 "http://www.w3.org/TR/2001/REC-SVG-20010904/DTD/svg10.dtd">
<svg version="1.0" xmlns="http://www.w3.org/2000/svg"
 width="2382.000000pt" height="2382.000000pt" viewBox="0 0 2382.000000 2382.000000"
 preserveAspectRatio="xMidYMid meet">
<metadata>
Created by potrace 1.14, written by Peter Selinger 2001-2017
</metadata>
<g transform="translate(0.000000,2382.000000) scale(0.100000,-0.100000)"
fill="#000000" stroke="none">
<path d="M15865 22081 c-440 -90 -619 -133 -835 -203 -663 -214 -1250 -550
-1819 -1042 -128 -110 -9786 -9756 -10044 -10031 -248 -264 -446 -514 -629
-795 -133 -203 -206 -332 -324 -575 -249 -512 -399 -1012 -484 -1607 -17 -116
-35 -218 -40 -228 -6 -12 -10 -200 -10 -494 l0 -476 40 -218 c139 -747 174
-880 332 -1272 208 -513 466 -980 763 -1375 288 -383 650 -746 1020 -1020 694
-517 1531 -852 2530 -1015 99 -16 196 -34 215 -40 21 -6 214 -10 497 -10 l461
0 234 45 c423 83 581 116 762 161 828 207 1575 626 2258 1268 255 239 9922
9917 10019 10031 743 862 1154 1767 1303 2865 14 102 30 201 36 220 6 21 10
209 10 487 l0 453 -50 267 c-123 658 -156 790 -270 1089 -408 1069 -1014 1909
-1817 2517 -129 97 -383 264 -533 349 -568 323 -1226 547 -1980 673 -118 19
-231 40 -250 45 -21 6 -237 10 -525 9 l-490 -1 -380 -77z m1405 -1395 c1312
-178 2382 -919 2983 -2066 240 -458 410 -1046 463 -1604 20 -210 14 -636 -11
-816 -103 -740 -397 -1379 -902 -1957 -121 -139 -648 -686 -1273 -1322 -498
-507 -3256 -3248 -3284 -3263 -8 -4 -1013 994 -2806 2787 l-2794 2794 91 98
c179 194 4251 4251 4374 4359 444 387 936 667 1464 833 242 76 527 136 760
160 55 6 116 13 135 15 19 2 179 3 355 1 232 -2 354 -7 445 -19z m-5875 -9286
l2799 -2799 -20 -23 c-10 -13 -653 -661 -1429 -1442 -1545 -1555 -2891 -2890
-3067 -3041 -629 -542 -1338 -854 -2178 -957 -140 -17 -699 -17 -840 0 -679
83 -1245 289 -1785 647 -1034 687 -1703 1877 -1754 3118 -22 552 61 1064 256
1577 160 420 388 806 701 1183 42 51 1044 1062 2227 2247 1183 1185 2177 2185
2209 2223 32 37 64 67 70 67 6 0 1271 -1260 2811 -2800z"/>
</g>
</svg>
